<?xml version="1.0" encoding="UTF-8"?>
<svg version="1.1" xmlns="http://www.w3.org/2000/svg" width="512" height="512">
<path d="M0 0 C15.84 0 31.68 0 48 0 C48 15.84 48 31.68 48 48 C42.72 48 37.44 48 32 48 C32 53.28 32 58.56 32 64 C26.72 64 21.44 64 16 64 C16 69.28 16 74.56 16 80 C10.72 80 5.44 80 0 80 C0 85.28 0 90.56 0 96 C-5.28 96 -10.56 96 -16 96 C-16 101.28 -16 106.56 -16 112 C-21.28 112 -26.56 112 -32 112 C-32 117.28 -32 122.56 -32 128 C-37.28 128 -42.56 128 -48 128 C-48 133.28 -48 138.56 -48 144 C-53.28 144 -58.56 144 -64 144 C-64 149.28 -64 154.56 -64 160 C-69.28 160 -74.56 160 -80 160 C-80 165.28 -80 170.56 -80 176 C-85.28 176 -90.56 176 -96 176 C-96 181.28 -96 186.56 -96 192 C-101.28 192 -106.56 192 -112 192 C-112 197.28 -112 202.56 -112 208 C-117.28 208 -122.56 208 -128 208 C-128 213.28 -128 218.56 -128 224 C-133.28 224 -138.56 224 -144 224 C-144 229.28 -144 234.56 -144 240 C-149.28 240 -154.56 240 -160 240 C-160 245.28 -160 250.56 -160 256 C-165.28 256 -170.56 256 -176 256 C-176 261.28 -176 266.56 -176 272 C-181.28 272 -186.56 272 -192 272 C-192 277.28 -192 282.56 -192 288 C-197.28 288 -202.56 288 -208 288 C-208 293.28 -208 298.56 -208 304 C-213.28 304 -218.56 304 -224 304 C-224 309.28 -224 314.56 -224 320 C-218.72 320 -213.44 320 -208 320 C-208 325.28 -208 330.56 -208 336 C-202.72 336 -197.44 336 -192 336 C-192 346.56 -192 357.12 -192 368 C-202.56 368 -213.12 368 -224 368 C-224 362.72 -224 357.44 -224 352 C-229.28 352 -234.56 352 -240 352 C-240 346.72 -240 341.44 -240 336 C-245.28 336 -250.56 336 -256 336 C-256 341.28 -256 346.56 -256 352 C-261.28 352 -266.56 352 -272 352 C-272 357.28 -272 362.56 -272 368 C-277.28 368 -282.56 368 -288 368 C-288 373.28 -288 378.56 -288 384 C-293.28 384 -298.56 384 -304 384 C-304 389.28 -304 394.56 -304 400 C-298.72 400 -293.44 400 -288 400 C-288 405.28 -288 410.56 -288 416 C-282.72 416 -277.44 416 -272 416 C-272 421.28 -272 426.56 -272 432 C-266.72 432 -261.44 432 -256 432 C-256 442.56 -256 453.12 -256 464 C-266.56 464 -277.12 464 -288 464 C-288 458.72 -288 453.44 -288 448 C-293.28 448 -298.56 448 -304 448 C-304 442.72 -304 437.44 -304 432 C-309.28 432 -314.56 432 -320 432 C-320 426.72 -320 421.44 -320 416 C-330.56 416 -341.12 416 -352 416 C-352 421.28 -352 426.56 -352 432 C-357.28 432 -362.56 432 -368 432 C-368 437.28 -368 442.56 -368 448 C-373.28 448 -378.56 448 -384 448 C-384 453.28 -384 458.56 -384 464 C-389.28 464 -394.56 464 -400 464 C-400 469.28 -400 474.56 -400 480 C-405.28 480 -410.56 480 -416 480 C-416 490.56 -416 501.12 -416 512 C-431.84 512 -447.68 512 -464 512 C-464 496.16 -464 480.32 -464 464 C-453.44 464 -442.88 464 -432 464 C-432 458.72 -432 453.44 -432 448 C-426.72 448 -421.44 448 -416 448 C-416 442.72 -416 437.44 -416 432 C-410.72 432 -405.44 432 -400 432 C-400 426.72 -400 421.44 -400 416 C-394.72 416 -389.44 416 -384 416 C-384 410.72 -384 405.44 -384 400 C-378.72 400 -373.44 400 -368 400 C-368 389.44 -368 378.88 -368 368 C-373.28 368 -378.56 368 -384 368 C-384 362.72 -384 357.44 -384 352 C-389.28 352 -394.56 352 -400 352 C-400 346.72 -400 341.44 -400 336 C-405.28 336 -410.56 336 -416 336 C-416 325.44 -416 314.88 -416 304 C-405.44 304 -394.88 304 -384 304 C-384 309.28 -384 314.56 -384 320 C-378.72 320 -373.44 320 -368 320 C-368 325.28 -368 330.56 -368 336 C-362.72 336 -357.44 336 -352 336 C-352 341.28 -352 346.56 -352 352 C-346.72 352 -341.44 352 -336 352 C-336 346.72 -336 341.44 -336 336 C-330.72 336 -325.44 336 -320 336 C-320 330.72 -320 325.44 -320 320 C-314.72 320 -309.44 320 -304 320 C-304 314.72 -304 309.44 -304 304 C-298.72 304 -293.44 304 -288 304 C-288 298.72 -288 293.44 -288 288 C-293.28 288 -298.56 288 -304 288 C-304 282.72 -304 277.44 -304 272 C-309.28 272 -314.56 272 -320 272 C-320 261.44 -320 250.88 -320 240 C-309.44 240 -298.88 240 -288 240 C-288 245.28 -288 250.56 -288 256 C-282.72 256 -277.44 256 -272 256 C-272 261.28 -272 266.56 -272 272 C-266.72 272 -261.44 272 -256 272 C-256 266.72 -256 261.44 -256 256 C-250.72 256 -245.44 256 -240 256 C-240 250.72 -240 245.44 -240 240 C-234.72 240 -229.44 240 -224 240 C-224 234.72 -224 229.44 -224 224 C-218.72 224 -213.44 224 -208 224 C-208 218.72 -208 213.44 -208 208 C-202.72 208 -197.44 208 -192 208 C-192 202.72 -192 197.44 -192 192 C-186.72 192 -181.44 192 -176 192 C-176 186.72 -176 181.44 -176 176 C-170.72 176 -165.44 176 -160 176 C-160 170.72 -160 165.44 -160 160 C-154.72 160 -149.44 160 -144 160 C-144 154.72 -144 149.44 -144 144 C-138.72 144 -133.44 144 -128 144 C-128 138.72 -128 133.44 -128 128 C-122.72 128 -117.44 128 -112 128 C-112 122.72 -112 117.44 -112 112 C-106.72 112 -101.44 112 -96 112 C-96 106.72 -96 101.44 -96 96 C-90.72 96 -85.44 96 -80 96 C-80 90.72 -80 85.44 -80 80 C-74.72 80 -69.44 80 -64 80 C-64 74.72 -64 69.44 -64 64 C-58.72 64 -53.44 64 -48 64 C-48 58.72 -48 53.44 -48 48 C-42.72 48 -37.44 48 -32 48 C-32 42.72 -32 37.44 -32 32 C-26.72 32 -21.44 32 -16 32 C-16 26.72 -16 21.44 -16 16 C-10.72 16 -5.44 16 0 16 C0 10.72 0 5.44 0 0 Z " fill="#B8BECB" transform="translate(464,0)"/>
<path d="M0 0 C10.56 0 21.12 0 32 0 C32 5.28 32 10.56 32 16 C37.28 16 42.56 16 48 16 C48 21.28 48 26.56 48 32 C58.56 32 69.12 32 80 32 C80 37.28 80 42.56 80 48 C74.72 48 69.44 48 64 48 C64 53.28 64 58.56 64 64 C58.72 64 53.44 64 48 64 C48 85.12 48 106.24 48 128 C42.72 128 37.44 128 32 128 C32 133.28 32 138.56 32 144 C26.72 144 21.44 144 16 144 C16 149.28 16 154.56 16 160 C21.28 160 26.56 160 32 160 C32 165.28 32 170.56 32 176 C37.28 176 42.56 176 48 176 C48 181.28 48 186.56 48 192 C53.28 192 58.56 192 64 192 C64 202.56 64 213.12 64 224 C53.44 224 42.88 224 32 224 C32 218.72 32 213.44 32 208 C26.72 208 21.44 208 16 208 C16 202.72 16 197.44 16 192 C10.72 192 5.44 192 0 192 C0 186.72 0 181.44 0 176 C-10.56 176 -21.12 176 -32 176 C-32 181.28 -32 186.56 -32 192 C-37.28 192 -42.56 192 -48 192 C-48 197.28 -48 202.56 -48 208 C-53.28 208 -58.56 208 -64 208 C-64 213.28 -64 218.56 -64 224 C-69.28 224 -74.56 224 -80 224 C-80 229.28 -80 234.56 -80 240 C-85.28 240 -90.56 240 -96 240 C-96 250.56 -96 261.12 -96 272 C-111.84 272 -127.68 272 -144 272 C-144 256.16 -144 240.32 -144 224 C-133.44 224 -122.88 224 -112 224 C-112 218.72 -112 213.44 -112 208 C-106.72 208 -101.44 208 -96 208 C-96 202.72 -96 197.44 -96 192 C-90.72 192 -85.44 192 -80 192 C-80 186.72 -80 181.44 -80 176 C-74.72 176 -69.44 176 -64 176 C-64 170.72 -64 165.44 -64 160 C-58.72 160 -53.44 160 -48 160 C-48 149.44 -48 138.88 -48 128 C-53.28 128 -58.56 128 -64 128 C-64 122.72 -64 117.44 -64 112 C-69.28 112 -74.56 112 -80 112 C-80 106.72 -80 101.44 -80 96 C-85.28 96 -90.56 96 -96 96 C-96 85.44 -96 74.88 -96 64 C-85.44 64 -74.88 64 -64 64 C-64 69.28 -64 74.56 -64 80 C-58.72 80 -53.44 80 -48 80 C-48 85.28 -48 90.56 -48 96 C-42.72 96 -37.44 96 -32 96 C-32 101.28 -32 106.56 -32 112 C-26.72 112 -21.44 112 -16 112 C-16 106.72 -16 101.44 -16 96 C-10.72 96 -5.44 96 0 96 C0 90.72 0 85.44 0 80 C5.28 80 10.56 80 16 80 C16 74.72 16 69.44 16 64 C21.28 64 26.56 64 32 64 C32 58.72 32 53.44 32 48 C26.72 48 21.44 48 16 48 C16 42.72 16 37.44 16 32 C10.72 32 5.44 32 0 32 C0 21.44 0 10.88 0 0 Z " fill="#B8BECB" transform="translate(144,240)"/>
<path d="M0 0 C15.84 0 31.68 0 48 0 C48 15.84 48 31.68 48 48 C42.72 48 37.44 48 32 48 C32 53.28 32 58.56 32 64 C26.72 64 21.44 64 16 64 C16 69.28 16 74.56 16 80 C10.72 80 5.44 80 0 80 C0 85.28 0 90.56 0 96 C-5.28 96 -10.56 96 -16 96 C-16 101.28 -16 106.56 -16 112 C-21.28 112 -26.56 112 -32 112 C-32 117.28 -32 122.56 -32 128 C-37.28 128 -42.56 128 -48 128 C-48 133.28 -48 138.56 -48 144 C-53.28 144 -58.56 144 -64 144 C-64 149.28 -64 154.56 -64 160 C-74.56 160 -85.12 160 -96 160 C-96 154.72 -96 149.44 -96 144 C-101.28 144 -106.56 144 -112 144 C-112 149.28 -112 154.56 -112 160 C-117.28 160 -122.56 160 -128 160 C-128 165.28 -128 170.56 -128 176 C-133.28 176 -138.56 176 -144 176 C-144 181.28 -144 186.56 -144 192 C-149.28 192 -154.56 192 -160 192 C-160 181.44 -160 170.88 -160 160 C-154.72 160 -149.44 160 -144 160 C-144 154.72 -144 149.44 -144 144 C-138.72 144 -133.44 144 -128 144 C-128 138.72 -128 133.44 -128 128 C-122.72 128 -117.44 128 -112 128 C-112 122.72 -112 117.44 -112 112 C-106.72 112 -101.44 112 -96 112 C-96 106.72 -96 101.44 -96 96 C-90.72 96 -85.44 96 -80 96 C-80 90.72 -80 85.44 -80 80 C-74.72 80 -69.44 80 -64 80 C-64 74.72 -64 69.44 -64 64 C-58.72 64 -53.44 64 -48 64 C-48 58.72 -48 53.44 -48 48 C-42.72 48 -37.44 48 -32 48 C-32 42.72 -32 37.44 -32 32 C-26.72 32 -21.44 32 -16 32 C-16 26.72 -16 21.44 -16 16 C-10.72 16 -5.44 16 0 16 C0 10.72 0 5.44 0 0 Z " fill="#CFD5E4" transform="translate(464,0)"/>
<path d="M0 0 C5.28 0 10.56 0 16 0 C16 5.28 16 10.56 16 16 C21.28 16 26.56 16 32 16 C32 21.28 32 26.56 32 32 C37.28 32 42.56 32 48 32 C48 37.28 48 42.56 48 48 C37.44 48 26.88 48 16 48 C16 53.28 16 58.56 16 64 C10.72 64 5.44 64 0 64 C0 69.28 0 74.56 0 80 C-5.28 80 -10.56 80 -16 80 C-16 85.28 -16 90.56 -16 96 C-21.28 96 -26.56 96 -32 96 C-32 101.28 -32 106.56 -32 112 C-37.28 112 -42.56 112 -48 112 C-48 122.56 -48 133.12 -48 144 C-63.84 144 -79.68 144 -96 144 C-96 128.16 -96 112.32 -96 96 C-85.44 96 -74.88 96 -64 96 C-64 90.72 -64 85.44 -64 80 C-58.72 80 -53.44 80 -48 80 C-48 74.72 -48 69.44 -48 64 C-42.72 64 -37.44 64 -32 64 C-32 58.72 -32 53.44 -32 48 C-26.72 48 -21.44 48 -16 48 C-16 42.72 -16 37.44 -16 32 C-10.72 32 -5.44 32 0 32 C0 21.44 0 10.88 0 0 Z " fill="#684E1E" transform="translate(96,368)"/>
<path d="M0 0 C15.84 0 31.68 0 48 0 C48 15.84 48 31.68 48 48 C42.72 48 37.44 48 32 48 C32 53.28 32 58.56 32 64 C26.72 64 21.44 64 16 64 C16 69.28 16 74.56 16 80 C10.72 80 5.44 80 0 80 C0 85.28 0 90.56 0 96 C-5.28 96 -10.56 96 -16 96 C-16 101.28 -16 106.56 -16 112 C-21.28 112 -26.56 112 -32 112 C-32 101.44 -32 90.88 -32 80 C-37.28 80 -42.56 80 -48 80 C-48 69.44 -48 58.88 -48 48 C-42.72 48 -37.44 48 -32 48 C-32 42.72 -32 37.44 -32 32 C-26.72 32 -21.44 32 -16 32 C-16 26.72 -16 21.44 -16 16 C-10.72 16 -5.44 16 0 16 C0 10.72 0 5.44 0 0 Z " fill="#D6DDEB" transform="translate(464,0)"/>
<path d="M0 0 C10.56 0 21.12 0 32 0 C32 5.28 32 10.56 32 16 C37.28 16 42.56 16 48 16 C48 21.28 48 26.56 48 32 C58.56 32 69.12 32 80 32 C80 37.28 80 42.56 80 48 C74.72 48 69.44 48 64 48 C64 53.28 64 58.56 64 64 C58.72 64 53.44 64 48 64 C48 79.84 48 95.68 48 112 C37.44 112 26.88 112 16 112 C16 96.16 16 80.32 16 64 C21.28 64 26.56 64 32 64 C32 58.72 32 53.44 32 48 C26.72 48 21.44 48 16 48 C16 42.72 16 37.44 16 32 C10.72 32 5.44 32 0 32 C0 21.44 0 10.88 0 0 Z " fill="#696C73" transform="translate(144,240)"/>
<path d="M0 0 C15.84 0 31.68 0 48 0 C48 5.28 48 10.56 48 16 C42.72 16 37.44 16 32 16 C32 21.28 32 26.56 32 32 C37.28 32 42.56 32 48 32 C48 37.28 48 42.56 48 48 C53.28 48 58.56 48 64 48 C64 58.56 64 69.12 64 80 C53.44 80 42.88 80 32 80 C32 74.72 32 69.44 32 64 C26.72 64 21.44 64 16 64 C16 58.72 16 53.44 16 48 C10.72 48 5.44 48 0 48 C0 53.28 0 58.56 0 64 C-5.28 64 -10.56 64 -16 64 C-16 48.16 -16 32.32 -16 16 C-10.72 16 -5.44 16 0 16 C0 10.72 0 5.44 0 0 Z " fill="#969AA6" transform="translate(208,288)"/>
<path d="M0 0 C10.56 0 21.12 0 32 0 C32 5.28 32 10.56 32 16 C37.28 16 42.56 16 48 16 C48 21.28 48 26.56 48 32 C53.28 32 58.56 32 64 32 C64 37.28 64 42.56 64 48 C69.28 48 74.56 48 80 48 C80 58.56 80 69.12 80 80 C74.72 80 69.44 80 64 80 C64 74.72 64 69.44 64 64 C53.44 64 42.88 64 32 64 C32 58.72 32 53.44 32 48 C26.72 48 21.44 48 16 48 C16 42.72 16 37.44 16 32 C10.72 32 5.44 32 0 32 C0 21.44 0 10.88 0 0 Z " fill="#696C73" transform="translate(48,304)"/>
<path d="M0 0 C10.56 0 21.12 0 32 0 C32 21.12 32 42.24 32 64 C16.16 64 0.32 64 -16 64 C-16 58.72 -16 53.44 -16 48 C-21.28 48 -26.56 48 -32 48 C-32 42.72 -32 37.44 -32 32 C-26.72 32 -21.44 32 -16 32 C-16 26.72 -16 21.44 -16 16 C-10.72 16 -5.44 16 0 16 C0 10.72 0 5.44 0 0 Z " fill="#B8BECB" transform="translate(240,224)"/>
<path d="M0 0 C5.28 0 10.56 0 16 0 C16 5.28 16 10.56 16 16 C21.28 16 26.56 16 32 16 C32 21.28 32 26.56 32 32 C26.72 32 21.44 32 16 32 C16 37.28 16 42.56 16 48 C10.72 48 5.44 48 0 48 C0 53.28 0 58.56 0 64 C-5.28 64 -10.56 64 -16 64 C-16 69.28 -16 74.56 -16 80 C-21.28 80 -26.56 80 -32 80 C-32 64.16 -32 48.32 -32 32 C-26.72 32 -21.44 32 -16 32 C-16 26.72 -16 21.44 -16 16 C-10.72 16 -5.44 16 0 16 C0 10.72 0 5.44 0 0 Z " fill="#969AA5" transform="translate(352,144)"/>
<path d="M0 0 C10.56 0 21.12 0 32 0 C32 5.28 32 10.56 32 16 C37.28 16 42.56 16 48 16 C48 26.56 48 37.12 48 48 C32.16 48 16.32 48 0 48 C0 32.16 0 16.32 0 0 Z " fill="#4E5055" transform="translate(0,464)"/>
<path d="M0 0 C5.28 0 10.56 0 16 0 C16 5.28 16 10.56 16 16 C21.28 16 26.56 16 32 16 C32 21.28 32 26.56 32 32 C37.28 32 42.56 32 48 32 C48 37.28 48 42.56 48 48 C37.44 48 26.88 48 16 48 C16 53.28 16 58.56 16 64 C10.72 64 5.44 64 0 64 C0 58.72 0 53.44 0 48 C-5.28 48 -10.56 48 -16 48 C-16 42.72 -16 37.44 -16 32 C-10.72 32 -5.44 32 0 32 C0 21.44 0 10.88 0 0 Z " fill="#684E1E" transform="translate(96,368)"/>
<path d="M0 0 C10.56 0 21.12 0 32 0 C32 5.28 32 10.56 32 16 C26.72 16 21.44 16 16 16 C16 21.28 16 26.56 16 32 C10.72 32 5.44 32 0 32 C0 37.28 0 42.56 0 48 C-5.28 48 -10.56 48 -16 48 C-16 53.28 -16 58.56 -16 64 C-21.28 64 -26.56 64 -32 64 C-32 53.44 -32 42.88 -32 32 C-26.72 32 -21.44 32 -16 32 C-16 26.72 -16 21.44 -16 16 C-10.72 16 -5.44 16 0 16 C0 10.72 0 5.44 0 0 Z " fill="#CFD5E4" transform="translate(336,128)"/>
<path d="M0 0 C15.84 0 31.68 0 48 0 C48 15.84 48 31.68 48 48 C37.44 48 26.88 48 16 48 C16 37.44 16 26.88 16 16 C10.72 16 5.44 16 0 16 C0 10.72 0 5.44 0 0 Z " fill="#B2B7C5" transform="translate(352,112)"/>
<path d="M0 0 C15.84 0 31.68 0 48 0 C48 15.84 48 31.68 48 48 C42.72 48 37.44 48 32 48 C32 37.44 32 26.88 32 16 C21.44 16 10.88 16 0 16 C0 10.72 0 5.44 0 0 Z " fill="#5C5F64" transform="translate(464,0)"/>
<path d="M0 0 C10.56 0 21.12 0 32 0 C32 10.56 32 21.12 32 32 C21.44 32 10.88 32 0 32 C0 21.44 0 10.88 0 0 Z " fill="#684E1E" transform="translate(32,448)"/>
<path d="M0 0 C10.56 0 21.12 0 32 0 C32 10.56 32 21.12 32 32 C21.44 32 10.88 32 0 32 C0 21.44 0 10.88 0 0 Z " fill="#B8BECB" transform="translate(160,320)"/>
<path d="M0 0 C10.56 0 21.12 0 32 0 C32 10.56 32 21.12 32 32 C26.72 32 21.44 32 16 32 C16 26.72 16 21.44 16 16 C10.72 16 5.44 16 0 16 C0 10.72 0 5.44 0 0 Z " fill="#696C73" transform="translate(0,464)"/>
<path d="M0 0 C5.28 0 10.56 0 16 0 C16 10.56 16 21.12 16 32 C5.44 32 -5.12 32 -16 32 C-16 26.72 -16 21.44 -16 16 C-10.72 16 -5.44 16 0 16 C0 10.72 0 5.44 0 0 Z " fill="#4E5055" transform="translate(192,432)"/>
<path d="M0 0 C5.28 0 10.56 0 16 0 C16 5.28 16 10.56 16 16 C21.28 16 26.56 16 32 16 C32 21.28 32 26.56 32 32 C21.44 32 10.88 32 0 32 C0 21.44 0 10.88 0 0 Z " fill="#493615" transform="translate(96,368)"/>
<path d="M0 0 C5.28 0 10.56 0 16 0 C16 10.56 16 21.12 16 32 C5.44 32 -5.12 32 -16 32 C-16 26.72 -16 21.44 -16 16 C-10.72 16 -5.44 16 0 16 C0 10.72 0 5.44 0 0 Z " fill="#4E5055" transform="translate(256,336)"/>
<path d="M0 0 C5.28 0 10.56 0 16 0 C16 10.56 16 21.12 16 32 C5.44 32 -5.12 32 -16 32 C-16 26.72 -16 21.44 -16 16 C-10.72 16 -5.44 16 0 16 C0 10.72 0 5.44 0 0 Z " fill="#CFD5E4" transform="translate(144,320)"/>
<path d="M0 0 C10.56 0 21.12 0 32 0 C32 5.28 32 10.56 32 16 C26.72 16 21.44 16 16 16 C16 21.28 16 26.56 16 32 C10.72 32 5.44 32 0 32 C0 21.44 0 10.88 0 0 Z " fill="#696C73" transform="translate(48,304)"/>
<path d="M0 0 C10.56 0 21.12 0 32 0 C32 5.28 32 10.56 32 16 C26.72 16 21.44 16 16 16 C16 21.28 16 26.56 16 32 C10.72 32 5.44 32 0 32 C0 21.44 0 10.88 0 0 Z " fill="#696C73" transform="translate(144,240)"/>
<path d="M0 0 C10.56 0 21.12 0 32 0 C32 5.28 32 10.56 32 16 C26.72 16 21.44 16 16 16 C16 21.28 16 26.56 16 32 C10.72 32 5.44 32 0 32 C0 21.44 0 10.88 0 0 Z " fill="#CFD5E4" transform="translate(304,160)"/>
<path d="M0 0 C10.56 0 21.12 0 32 0 C32 5.28 32 10.56 32 16 C26.72 16 21.44 16 16 16 C16 21.28 16 26.56 16 32 C10.72 32 5.44 32 0 32 C0 21.44 0 10.88 0 0 Z " fill="#E6EDFB" transform="translate(416,48)"/>
<path d="M0 0 C5.28 0 10.56 0 16 0 C16 10.56 16 21.12 16 32 C10.72 32 5.44 32 0 32 C0 21.44 0 10.88 0 0 Z " fill="#5C5F64" transform="translate(0,480)"/>
<path d="M0 0 C10.56 0 21.12 0 32 0 C32 5.28 32 10.56 32 16 C21.44 16 10.88 16 0 16 C0 10.72 0 5.44 0 0 Z " fill="#E6EDFB" transform="translate(160,304)"/>
<path d="M0 0 C10.56 0 21.12 0 32 0 C32 5.28 32 10.56 32 16 C21.44 16 10.88 16 0 16 C0 10.72 0 5.44 0 0 Z " fill="#B8BECB" transform="translate(240,224)"/>
<path d="M0 0 C5.28 0 10.56 0 16 0 C16 5.28 16 10.56 16 16 C10.72 16 5.44 16 0 16 C0 10.72 0 5.44 0 0 Z " fill="#B8BECB" transform="translate(16,480)"/>
<path d="M0 0 C5.28 0 10.56 0 16 0 C16 5.28 16 10.56 16 16 C10.72 16 5.44 16 0 16 C0 10.72 0 5.44 0 0 Z " fill="#281E0B" transform="translate(48,464)"/>
<path d="M0 0 C5.28 0 10.56 0 16 0 C16 5.28 16 10.56 16 16 C10.72 16 5.44 16 0 16 C0 10.72 0 5.44 0 0 Z " fill="#281E0B" transform="translate(64,448)"/>
<path d="M0 0 C5.28 0 10.56 0 16 0 C16 5.28 16 10.56 16 16 C10.72 16 5.44 16 0 16 C0 10.72 0 5.44 0 0 Z " fill="#896727" transform="translate(48,448)"/>
<path d="M0 0 C5.28 0 10.56 0 16 0 C16 5.28 16 10.56 16 16 C10.72 16 5.44 16 0 16 C0 10.72 0 5.44 0 0 Z " fill="#493615" transform="translate(32,448)"/>
<path d="M0 0 C5.28 0 10.56 0 16 0 C16 5.28 16 10.56 16 16 C10.72 16 5.44 16 0 16 C0 10.72 0 5.44 0 0 Z " fill="#969AA6" transform="translate(176,432)"/>
<path d="M0 0 C5.28 0 10.56 0 16 0 C16 5.28 16 10.56 16 16 C10.72 16 5.44 16 0 16 C0 10.72 0 5.44 0 0 Z " fill="#4E5055" transform="translate(160,432)"/>
<path d="M0 0 C5.28 0 10.56 0 16 0 C16 5.28 16 10.56 16 16 C10.72 16 5.44 16 0 16 C0 10.72 0 5.44 0 0 Z " fill="#281E0B" transform="translate(80,432)"/>
<path d="M0 0 C5.28 0 10.56 0 16 0 C16 5.28 16 10.56 16 16 C10.72 16 5.44 16 0 16 C0 10.72 0 5.44 0 0 Z " fill="#493615" transform="translate(48,432)"/>
<path d="M0 0 C5.28 0 10.56 0 16 0 C16 5.28 16 10.56 16 16 C10.72 16 5.44 16 0 16 C0 10.72 0 5.44 0 0 Z " fill="#5C5F64" transform="translate(176,416)"/>
<path d="M0 0 C5.28 0 10.56 0 16 0 C16 5.28 16 10.56 16 16 C10.72 16 5.44 16 0 16 C0 10.72 0 5.44 0 0 Z " fill="#969AA6" transform="translate(160,416)"/>
<path d="M0 0 C5.28 0 10.56 0 16 0 C16 5.28 16 10.56 16 16 C10.72 16 5.44 16 0 16 C0 10.72 0 5.44 0 0 Z " fill="#4E5055" transform="translate(144,416)"/>
<path d="M0 0 C5.28 0 10.56 0 16 0 C16 5.28 16 10.56 16 16 C10.72 16 5.44 16 0 16 C0 10.72 0 5.44 0 0 Z " fill="#281E0B" transform="translate(96,416)"/>
<path d="M0 0 C5.28 0 10.56 0 16 0 C16 5.28 16 10.56 16 16 C10.72 16 5.44 16 0 16 C0 10.72 0 5.44 0 0 Z " fill="#896727" transform="translate(80,416)"/>
<path d="M0 0 C5.28 0 10.56 0 16 0 C16 5.28 16 10.56 16 16 C10.72 16 5.44 16 0 16 C0 10.72 0 5.44 0 0 Z " fill="#493615" transform="translate(64,416)"/>
<path d="M0 0 C5.28 0 10.56 0 16 0 C16 5.28 16 10.56 16 16 C10.72 16 5.44 16 0 16 C0 10.72 0 5.44 0 0 Z " fill="#5C5F64" transform="translate(160,400)"/>
<path d="M0 0 C5.28 0 10.56 0 16 0 C16 5.28 16 10.56 16 16 C10.72 16 5.44 16 0 16 C0 10.72 0 5.44 0 0 Z " fill="#969AA6" transform="translate(144,400)"/>
<path d="M0 0 C5.28 0 10.56 0 16 0 C16 5.28 16 10.56 16 16 C10.72 16 5.44 16 0 16 C0 10.72 0 5.44 0 0 Z " fill="#4E5055" transform="translate(128,400)"/>
<path d="M0 0 C5.28 0 10.56 0 16 0 C16 5.28 16 10.56 16 16 C10.72 16 5.44 16 0 16 C0 10.72 0 5.44 0 0 Z " fill="#281E0B" transform="translate(112,400)"/>
<path d="M0 0 C5.28 0 10.56 0 16 0 C16 5.28 16 10.56 16 16 C10.72 16 5.44 16 0 16 C0 10.72 0 5.44 0 0 Z " fill="#493615" transform="translate(80,400)"/>
<path d="M0 0 C5.28 0 10.56 0 16 0 C16 5.28 16 10.56 16 16 C10.72 16 5.44 16 0 16 C0 10.72 0 5.44 0 0 Z " fill="#5C5F64" transform="translate(144,384)"/>
<path d="M0 0 C5.28 0 10.56 0 16 0 C16 5.28 16 10.56 16 16 C10.72 16 5.44 16 0 16 C0 10.72 0 5.44 0 0 Z " fill="#B8BECB" transform="translate(128,384)"/>
<path d="M0 0 C5.28 0 10.56 0 16 0 C16 5.28 16 10.56 16 16 C10.72 16 5.44 16 0 16 C0 10.72 0 5.44 0 0 Z " fill="#4E5055" transform="translate(112,384)"/>
<path d="M0 0 C5.28 0 10.56 0 16 0 C16 5.28 16 10.56 16 16 C10.72 16 5.44 16 0 16 C0 10.72 0 5.44 0 0 Z " fill="#4E5055" transform="translate(160,368)"/>
<path d="M0 0 C5.28 0 10.56 0 16 0 C16 5.28 16 10.56 16 16 C10.72 16 5.44 16 0 16 C0 10.72 0 5.44 0 0 Z " fill="#969AA6" transform="translate(144,368)"/>
<path d="M0 0 C5.28 0 10.56 0 16 0 C16 5.28 16 10.56 16 16 C10.72 16 5.44 16 0 16 C0 10.72 0 5.44 0 0 Z " fill="#696C73" transform="translate(128,368)"/>
<path d="M0 0 C5.28 0 10.56 0 16 0 C16 5.28 16 10.56 16 16 C10.72 16 5.44 16 0 16 C0 10.72 0 5.44 0 0 Z " fill="#B8BECB" transform="translate(112,368)"/>
<path d="M0 0 C5.28 0 10.56 0 16 0 C16 5.28 16 10.56 16 16 C10.72 16 5.44 16 0 16 C0 10.72 0 5.44 0 0 Z " fill="#5C5F64" transform="translate(96,368)"/>
<path d="M0 0 C5.28 0 10.56 0 16 0 C16 5.28 16 10.56 16 16 C10.72 16 5.44 16 0 16 C0 10.72 0 5.44 0 0 Z " fill="#4E5055" transform="translate(176,352)"/>
<path d="M0 0 C5.28 0 10.56 0 16 0 C16 5.28 16 10.56 16 16 C10.72 16 5.44 16 0 16 C0 10.72 0 5.44 0 0 Z " fill="#969AA6" transform="translate(160,352)"/>
<path d="M0 0 C5.28 0 10.56 0 16 0 C16 5.28 16 10.56 16 16 C10.72 16 5.44 16 0 16 C0 10.72 0 5.44 0 0 Z " fill="#696C73" transform="translate(112,352)"/>
<path d="M0 0 C5.28 0 10.56 0 16 0 C16 5.28 16 10.56 16 16 C10.72 16 5.44 16 0 16 C0 10.72 0 5.44 0 0 Z " fill="#CFD5E4" transform="translate(96,352)"/>
<path d="M0 0 C5.28 0 10.56 0 16 0 C16 5.28 16 10.56 16 16 C10.72 16 5.44 16 0 16 C0 10.72 0 5.44 0 0 Z " fill="#5C5F64" transform="translate(80,352)"/>
<path d="M0 0 C5.28 0 10.56 0 16 0 C16 5.28 16 10.56 16 16 C10.72 16 5.44 16 0 16 C0 10.72 0 5.44 0 0 Z " fill="#969AA6" transform="translate(240,336)"/>
<path d="M0 0 C5.28 0 10.56 0 16 0 C16 5.28 16 10.56 16 16 C10.72 16 5.44 16 0 16 C0 10.72 0 5.44 0 0 Z " fill="#4E5055" transform="translate(224,336)"/>
<path d="M0 0 C5.28 0 10.56 0 16 0 C16 5.28 16 10.56 16 16 C10.72 16 5.44 16 0 16 C0 10.72 0 5.44 0 0 Z " fill="#4E5055" transform="translate(192,336)"/>
<path d="M0 0 C5.28 0 10.56 0 16 0 C16 5.28 16 10.56 16 16 C10.72 16 5.44 16 0 16 C0 10.72 0 5.44 0 0 Z " fill="#969AA6" transform="translate(176,336)"/>
<path d="M0 0 C5.28 0 10.56 0 16 0 C16 5.28 16 10.56 16 16 C10.72 16 5.44 16 0 16 C0 10.72 0 5.44 0 0 Z " fill="#B8BECB" transform="translate(160,336)"/>
<path d="M0 0 C5.28 0 10.56 0 16 0 C16 5.28 16 10.56 16 16 C10.72 16 5.44 16 0 16 C0 10.72 0 5.44 0 0 Z " fill="#696C73" transform="translate(128,336)"/>
<path d="M0 0 C5.28 0 10.56 0 16 0 C16 5.28 16 10.56 16 16 C10.72 16 5.44 16 0 16 C0 10.72 0 5.44 0 0 Z " fill="#696C73" transform="translate(96,336)"/>
<path d="M0 0 C5.28 0 10.56 0 16 0 C16 5.28 16 10.56 16 16 C10.72 16 5.44 16 0 16 C0 10.72 0 5.44 0 0 Z " fill="#E6EDFB" transform="translate(80,336)"/>
<path d="M0 0 C5.28 0 10.56 0 16 0 C16 5.28 16 10.56 16 16 C10.72 16 5.44 16 0 16 C0 10.72 0 5.44 0 0 Z " fill="#5C5F64" transform="translate(64,336)"/>
<path d="M0 0 C5.28 0 10.56 0 16 0 C16 5.28 16 10.56 16 16 C10.72 16 5.44 16 0 16 C0 10.72 0 5.44 0 0 Z " fill="#4E5055" transform="translate(240,320)"/>
<path d="M0 0 C5.28 0 10.56 0 16 0 C16 5.28 16 10.56 16 16 C10.72 16 5.44 16 0 16 C0 10.72 0 5.44 0 0 Z " fill="#969AA6" transform="translate(224,320)"/>
<path d="M0 0 C5.28 0 10.56 0 16 0 C16 5.28 16 10.56 16 16 C10.72 16 5.44 16 0 16 C0 10.72 0 5.44 0 0 Z " fill="#4E5055" transform="translate(208,320)"/>
<path d="M0 0 C5.28 0 10.56 0 16 0 C16 5.28 16 10.56 16 16 C10.72 16 5.44 16 0 16 C0 10.72 0 5.44 0 0 Z " fill="#E6EDFB" transform="translate(160,320)"/>
<path d="M0 0 C5.28 0 10.56 0 16 0 C16 5.28 16 10.56 16 16 C10.72 16 5.44 16 0 16 C0 10.72 0 5.44 0 0 Z " fill="#696C73" transform="translate(144,320)"/>
<path d="M0 0 C5.28 0 10.56 0 16 0 C16 5.28 16 10.56 16 16 C10.72 16 5.44 16 0 16 C0 10.72 0 5.44 0 0 Z " fill="#E6EDFB" transform="translate(64,320)"/>
<path d="M0 0 C5.28 0 10.56 0 16 0 C16 5.28 16 10.56 16 16 C10.72 16 5.44 16 0 16 C0 10.72 0 5.44 0 0 Z " fill="#5C5F64" transform="translate(48,320)"/>
<path d="M0 0 C5.28 0 10.56 0 16 0 C16 5.28 16 10.56 16 16 C10.72 16 5.44 16 0 16 C0 10.72 0 5.44 0 0 Z " fill="#5C5F64" transform="translate(224,304)"/>
<path d="M0 0 C5.28 0 10.56 0 16 0 C16 5.28 16 10.56 16 16 C10.72 16 5.44 16 0 16 C0 10.72 0 5.44 0 0 Z " fill="#B8BECB" transform="translate(208,304)"/>
<path d="M0 0 C5.28 0 10.56 0 16 0 C16 5.28 16 10.56 16 16 C10.72 16 5.44 16 0 16 C0 10.72 0 5.44 0 0 Z " fill="#4E5055" transform="translate(192,304)"/>
<path d="M0 0 C5.28 0 10.56 0 16 0 C16 5.28 16 10.56 16 16 C10.72 16 5.44 16 0 16 C0 10.72 0 5.44 0 0 Z " fill="#696C73" transform="translate(160,304)"/>
<path d="M0 0 C5.28 0 10.56 0 16 0 C16 5.28 16 10.56 16 16 C10.72 16 5.44 16 0 16 C0 10.72 0 5.44 0 0 Z " fill="#4E5055" transform="translate(240,288)"/>
<path d="M0 0 C5.28 0 10.56 0 16 0 C16 5.28 16 10.56 16 16 C10.72 16 5.44 16 0 16 C0 10.72 0 5.44 0 0 Z " fill="#5C5F64" transform="translate(208,288)"/>
<path d="M0 0 C5.28 0 10.56 0 16 0 C16 5.28 16 10.56 16 16 C10.72 16 5.44 16 0 16 C0 10.72 0 5.44 0 0 Z " fill="#B8BECB" transform="translate(192,288)"/>
<path d="M0 0 C5.28 0 10.56 0 16 0 C16 5.28 16 10.56 16 16 C10.72 16 5.44 16 0 16 C0 10.72 0 5.44 0 0 Z " fill="#5C5F64" transform="translate(176,288)"/>
<path d="M0 0 C5.28 0 10.56 0 16 0 C16 5.28 16 10.56 16 16 C10.72 16 5.44 16 0 16 C0 10.72 0 5.44 0 0 Z " fill="#4E5055" transform="translate(256,272)"/>
<path d="M0 0 C5.28 0 10.56 0 16 0 C16 5.28 16 10.56 16 16 C10.72 16 5.44 16 0 16 C0 10.72 0 5.44 0 0 Z " fill="#969AA6" transform="translate(240,272)"/>
<path d="M0 0 C5.28 0 10.56 0 16 0 C16 5.28 16 10.56 16 16 C10.72 16 5.44 16 0 16 C0 10.72 0 5.44 0 0 Z " fill="#6F7882" transform="translate(224,272)"/>
<path d="M0 0 C5.28 0 10.56 0 16 0 C16 5.28 16 10.56 16 16 C10.72 16 5.44 16 0 16 C0 10.72 0 5.44 0 0 Z " fill="#B8BECB" transform="translate(208,272)"/>
<path d="M0 0 C5.28 0 10.56 0 16 0 C16 5.28 16 10.56 16 16 C10.72 16 5.44 16 0 16 C0 10.72 0 5.44 0 0 Z " fill="#696C73" transform="translate(192,272)"/>
<path d="M0 0 C5.28 0 10.56 0 16 0 C16 5.28 16 10.56 16 16 C10.72 16 5.44 16 0 16 C0 10.72 0 5.44 0 0 Z " fill="#E6EDFB" transform="translate(176,272)"/>
<path d="M0 0 C5.28 0 10.56 0 16 0 C16 5.28 16 10.56 16 16 C10.72 16 5.44 16 0 16 C0 10.72 0 5.44 0 0 Z " fill="#5C5F64" transform="translate(160,272)"/>
<path d="M0 0 C5.28 0 10.56 0 16 0 C16 5.28 16 10.56 16 16 C10.72 16 5.44 16 0 16 C0 10.72 0 5.44 0 0 Z " fill="#4E5055" transform="translate(272,256)"/>
<path d="M0 0 C5.28 0 10.56 0 16 0 C16 5.28 16 10.56 16 16 C10.72 16 5.44 16 0 16 C0 10.72 0 5.44 0 0 Z " fill="#969AA6" transform="translate(256,256)"/>
<path d="M0 0 C5.28 0 10.56 0 16 0 C16 5.28 16 10.56 16 16 C10.72 16 5.44 16 0 16 C0 10.72 0 5.44 0 0 Z " fill="#6F7882" transform="translate(240,256)"/>
<path d="M0 0 C5.28 0 10.56 0 16 0 C16 5.28 16 10.56 16 16 C10.72 16 5.44 16 0 16 C0 10.72 0 5.44 0 0 Z " fill="#4E5055" transform="translate(208,256)"/>
<path d="M0 0 C5.28 0 10.56 0 16 0 C16 5.28 16 10.56 16 16 C10.72 16 5.44 16 0 16 C0 10.72 0 5.44 0 0 Z " fill="#E6EDFB" transform="translate(160,256)"/>
<path d="M0 0 C5.28 0 10.56 0 16 0 C16 5.28 16 10.56 16 16 C10.72 16 5.44 16 0 16 C0 10.72 0 5.44 0 0 Z " fill="#5C5F64" transform="translate(144,256)"/>
<path d="M0 0 C5.28 0 10.56 0 16 0 C16 5.28 16 10.56 16 16 C10.72 16 5.44 16 0 16 C0 10.72 0 5.44 0 0 Z " fill="#4E5055" transform="translate(288,240)"/>
<path d="M0 0 C5.28 0 10.56 0 16 0 C16 5.28 16 10.56 16 16 C10.72 16 5.44 16 0 16 C0 10.72 0 5.44 0 0 Z " fill="#969AA6" transform="translate(272,240)"/>
<path d="M0 0 C5.28 0 10.56 0 16 0 C16 5.28 16 10.56 16 16 C10.72 16 5.44 16 0 16 C0 10.72 0 5.44 0 0 Z " fill="#6F7882" transform="translate(256,240)"/>
<path d="M0 0 C5.28 0 10.56 0 16 0 C16 5.28 16 10.56 16 16 C10.72 16 5.44 16 0 16 C0 10.72 0 5.44 0 0 Z " fill="#4E5055" transform="translate(224,240)"/>
<path d="M0 0 C5.28 0 10.56 0 16 0 C16 5.28 16 10.56 16 16 C10.72 16 5.44 16 0 16 C0 10.72 0 5.44 0 0 Z " fill="#4E5055" transform="translate(304,224)"/>
<path d="M0 0 C5.28 0 10.56 0 16 0 C16 5.28 16 10.56 16 16 C10.72 16 5.44 16 0 16 C0 10.72 0 5.44 0 0 Z " fill="#969AA6" transform="translate(288,224)"/>
<path d="M0 0 C5.28 0 10.56 0 16 0 C16 5.28 16 10.56 16 16 C10.72 16 5.44 16 0 16 C0 10.72 0 5.44 0 0 Z " fill="#6F7882" transform="translate(272,224)"/>
<path d="M0 0 C5.28 0 10.56 0 16 0 C16 5.28 16 10.56 16 16 C10.72 16 5.44 16 0 16 C0 10.72 0 5.44 0 0 Z " fill="#5C5F64" transform="translate(240,224)"/>
<path d="M0 0 C5.28 0 10.56 0 16 0 C16 5.28 16 10.56 16 16 C10.72 16 5.44 16 0 16 C0 10.72 0 5.44 0 0 Z " fill="#4E5055" transform="translate(320,208)"/>
<path d="M0 0 C5.28 0 10.56 0 16 0 C16 5.28 16 10.56 16 16 C10.72 16 5.44 16 0 16 C0 10.72 0 5.44 0 0 Z " fill="#969AA6" transform="translate(304,208)"/>
<path d="M0 0 C5.28 0 10.56 0 16 0 C16 5.28 16 10.56 16 16 C10.72 16 5.44 16 0 16 C0 10.72 0 5.44 0 0 Z " fill="#6F7882" transform="translate(288,208)"/>
<path d="M0 0 C5.28 0 10.56 0 16 0 C16 5.28 16 10.56 16 16 C10.72 16 5.44 16 0 16 C0 10.72 0 5.44 0 0 Z " fill="#5C5F64" transform="translate(256,208)"/>
<path d="M0 0 C5.28 0 10.56 0 16 0 C16 5.28 16 10.56 16 16 C10.72 16 5.44 16 0 16 C0 10.72 0 5.44 0 0 Z " fill="#4E5055" transform="translate(336,192)"/>
<path d="M0 0 C5.28 0 10.56 0 16 0 C16 5.28 16 10.56 16 16 C10.72 16 5.44 16 0 16 C0 10.72 0 5.44 0 0 Z " fill="#6F7882" transform="translate(304,192)"/>
<path d="M0 0 C5.28 0 10.56 0 16 0 C16 5.28 16 10.56 16 16 C10.72 16 5.44 16 0 16 C0 10.72 0 5.44 0 0 Z " fill="#5C5F64" transform="translate(272,192)"/>
<path d="M0 0 C5.28 0 10.56 0 16 0 C16 5.28 16 10.56 16 16 C10.72 16 5.44 16 0 16 C0 10.72 0 5.44 0 0 Z " fill="#4E5055" transform="translate(352,176)"/>
<path d="M0 0 C5.28 0 10.56 0 16 0 C16 5.28 16 10.56 16 16 C10.72 16 5.44 16 0 16 C0 10.72 0 5.44 0 0 Z " fill="#969AA6" transform="translate(336,176)"/>
<path d="M0 0 C5.28 0 10.56 0 16 0 C16 5.28 16 10.56 16 16 C10.72 16 5.44 16 0 16 C0 10.72 0 5.44 0 0 Z " fill="#6F7882" transform="translate(320,176)"/>
<path d="M0 0 C5.28 0 10.56 0 16 0 C16 5.28 16 10.56 16 16 C10.72 16 5.44 16 0 16 C0 10.72 0 5.44 0 0 Z " fill="#CFD5E4" transform="translate(304,176)"/>
<path d="M0 0 C5.28 0 10.56 0 16 0 C16 5.28 16 10.56 16 16 C10.72 16 5.44 16 0 16 C0 10.72 0 5.44 0 0 Z " fill="#696C73" transform="translate(288,176)"/>
<path d="M0 0 C5.28 0 10.56 0 16 0 C16 5.28 16 10.56 16 16 C10.72 16 5.44 16 0 16 C0 10.72 0 5.44 0 0 Z " fill="#5C5F64" transform="translate(368,160)"/>
<path d="M0 0 C5.28 0 10.56 0 16 0 C16 5.28 16 10.56 16 16 C10.72 16 5.44 16 0 16 C0 10.72 0 5.44 0 0 Z " fill="#6F7882" transform="translate(336,160)"/>
<path d="M0 0 C5.28 0 10.56 0 16 0 C16 5.28 16 10.56 16 16 C10.72 16 5.44 16 0 16 C0 10.72 0 5.44 0 0 Z " fill="#696C73" transform="translate(304,160)"/>
<path d="M0 0 C5.28 0 10.56 0 16 0 C16 5.28 16 10.56 16 16 C10.72 16 5.44 16 0 16 C0 10.72 0 5.44 0 0 Z " fill="#5C5F64" transform="translate(384,144)"/>
<path d="M0 0 C5.28 0 10.56 0 16 0 C16 5.28 16 10.56 16 16 C10.72 16 5.44 16 0 16 C0 10.72 0 5.44 0 0 Z " fill="#B8BECB" transform="translate(368,144)"/>
<path d="M0 0 C5.28 0 10.56 0 16 0 C16 5.28 16 10.56 16 16 C10.72 16 5.44 16 0 16 C0 10.72 0 5.44 0 0 Z " fill="#6F7882" transform="translate(352,144)"/>
<path d="M0 0 C5.28 0 10.56 0 16 0 C16 5.28 16 10.56 16 16 C10.72 16 5.44 16 0 16 C0 10.72 0 5.44 0 0 Z " fill="#696C73" transform="translate(320,144)"/>
<path d="M0 0 C5.28 0 10.56 0 16 0 C16 5.28 16 10.56 16 16 C10.72 16 5.44 16 0 16 C0 10.72 0 5.44 0 0 Z " fill="#5C5F64" transform="translate(400,128)"/>
<path d="M0 0 C5.28 0 10.56 0 16 0 C16 5.28 16 10.56 16 16 C10.72 16 5.44 16 0 16 C0 10.72 0 5.44 0 0 Z " fill="#B8BECB" transform="translate(384,128)"/>
<path d="M0 0 C5.28 0 10.56 0 16 0 C16 5.28 16 10.56 16 16 C10.72 16 5.44 16 0 16 C0 10.72 0 5.44 0 0 Z " fill="#696C73" transform="translate(336,128)"/>
<path d="M0 0 C5.28 0 10.56 0 16 0 C16 5.28 16 10.56 16 16 C10.72 16 5.44 16 0 16 C0 10.72 0 5.44 0 0 Z " fill="#5C5F64" transform="translate(416,112)"/>
<path d="M0 0 C5.28 0 10.56 0 16 0 C16 5.28 16 10.56 16 16 C10.72 16 5.44 16 0 16 C0 10.72 0 5.44 0 0 Z " fill="#B8BECB" transform="translate(400,112)"/>
<path d="M0 0 C5.28 0 10.56 0 16 0 C16 5.28 16 10.56 16 16 C10.72 16 5.44 16 0 16 C0 10.72 0 5.44 0 0 Z " fill="#969AA6" transform="translate(384,112)"/>
<path d="M0 0 C5.28 0 10.56 0 16 0 C16 5.28 16 10.56 16 16 C10.72 16 5.44 16 0 16 C0 10.72 0 5.44 0 0 Z " fill="#696C73" transform="translate(352,112)"/>
<path d="M0 0 C5.28 0 10.56 0 16 0 C16 5.28 16 10.56 16 16 C10.72 16 5.44 16 0 16 C0 10.72 0 5.44 0 0 Z " fill="#5C5F64" transform="translate(432,96)"/>
<path d="M0 0 C5.28 0 10.56 0 16 0 C16 5.28 16 10.56 16 16 C10.72 16 5.44 16 0 16 C0 10.72 0 5.44 0 0 Z " fill="#B8BECB" transform="translate(416,96)"/>
<path d="M0 0 C5.28 0 10.56 0 16 0 C16 5.28 16 10.56 16 16 C10.72 16 5.44 16 0 16 C0 10.72 0 5.44 0 0 Z " fill="#969AA6" transform="translate(400,96)"/>
<path d="M0 0 C5.28 0 10.56 0 16 0 C16 5.28 16 10.56 16 16 C10.72 16 5.44 16 0 16 C0 10.72 0 5.44 0 0 Z " fill="#696C73" transform="translate(368,96)"/>
<path d="M0 0 C5.28 0 10.56 0 16 0 C16 5.28 16 10.56 16 16 C10.72 16 5.44 16 0 16 C0 10.72 0 5.44 0 0 Z " fill="#5C5F64" transform="translate(448,80)"/>
<path d="M0 0 C5.28 0 10.56 0 16 0 C16 5.28 16 10.56 16 16 C10.72 16 5.44 16 0 16 C0 10.72 0 5.44 0 0 Z " fill="#969AA6" transform="translate(416,80)"/>
<path d="M0 0 C5.28 0 10.56 0 16 0 C16 5.28 16 10.56 16 16 C10.72 16 5.44 16 0 16 C0 10.72 0 5.44 0 0 Z " fill="#696C73" transform="translate(384,80)"/>
<path d="M0 0 C5.28 0 10.56 0 16 0 C16 5.28 16 10.56 16 16 C10.72 16 5.44 16 0 16 C0 10.72 0 5.44 0 0 Z " fill="#5C5F64" transform="translate(464,64)"/>
<path d="M0 0 C5.28 0 10.56 0 16 0 C16 5.28 16 10.56 16 16 C10.72 16 5.44 16 0 16 C0 10.72 0 5.44 0 0 Z " fill="#CFD5E4" transform="translate(448,64)"/>
<path d="M0 0 C5.28 0 10.56 0 16 0 C16 5.28 16 10.56 16 16 C10.72 16 5.44 16 0 16 C0 10.72 0 5.44 0 0 Z " fill="#969AA6" transform="translate(432,64)"/>
<path d="M0 0 C5.28 0 10.56 0 16 0 C16 5.28 16 10.56 16 16 C10.72 16 5.44 16 0 16 C0 10.72 0 5.44 0 0 Z " fill="#E6EDFB" transform="translate(416,64)"/>
<path d="M0 0 C5.28 0 10.56 0 16 0 C16 5.28 16 10.56 16 16 C10.72 16 5.44 16 0 16 C0 10.72 0 5.44 0 0 Z " fill="#696C73" transform="translate(400,64)"/>
<path d="M0 0 C5.28 0 10.56 0 16 0 C16 5.28 16 10.56 16 16 C10.72 16 5.44 16 0 16 C0 10.72 0 5.44 0 0 Z " fill="#5C5F64" transform="translate(480,48)"/>
<path d="M0 0 C5.28 0 10.56 0 16 0 C16 5.28 16 10.56 16 16 C10.72 16 5.44 16 0 16 C0 10.72 0 5.44 0 0 Z " fill="#CFD5E4" transform="translate(464,48)"/>
<path d="M0 0 C5.28 0 10.56 0 16 0 C16 5.28 16 10.56 16 16 C10.72 16 5.44 16 0 16 C0 10.72 0 5.44 0 0 Z " fill="#969AA6" transform="translate(448,48)"/>
<path d="M0 0 C5.28 0 10.56 0 16 0 C16 5.28 16 10.56 16 16 C10.72 16 5.44 16 0 16 C0 10.72 0 5.44 0 0 Z " fill="#696C73" transform="translate(416,48)"/>
<path d="M0 0 C5.28 0 10.56 0 16 0 C16 5.28 16 10.56 16 16 C10.72 16 5.44 16 0 16 C0 10.72 0 5.44 0 0 Z " fill="#E6EDFB" transform="translate(480,32)"/>
<path d="M0 0 C5.28 0 10.56 0 16 0 C16 5.28 16 10.56 16 16 C10.72 16 5.44 16 0 16 C0 10.72 0 5.44 0 0 Z " fill="#969AA6" transform="translate(464,32)"/>
<path d="M0 0 C5.28 0 10.56 0 16 0 C16 5.28 16 10.56 16 16 C10.72 16 5.44 16 0 16 C0 10.72 0 5.44 0 0 Z " fill="#5C5F64" transform="translate(432,32)"/>
<path d="M0 0 C5.28 0 10.56 0 16 0 C16 5.28 16 10.56 16 16 C10.72 16 5.44 16 0 16 C0 10.72 0 5.44 0 0 Z " fill="#969AA6" transform="translate(480,16)"/>
<path d="M0 0 C5.28 0 10.56 0 16 0 C16 5.28 16 10.56 16 16 C10.72 16 5.44 16 0 16 C0 10.72 0 5.44 0 0 Z " fill="#5C5F64" transform="translate(448,16)"/>
</svg>
